<svg width="26" height="26" viewBox="0 0 26 26" fill="none" xmlns="http://www.w3.org/2000/svg">
<path d="M13.0165 0C5.858 0 0.0305327 5.82189 0.0279324 12.9797C0.0266323 15.2677 0.62597 17.5013 1.76228 19.4695L0 26L6.80281 24.3928C8.6997 25.4276 10.8351 25.9708 13.0089 25.9721H13.014C20.1712 25.9721 25.9961 20.1489 26 12.9924C26.0026 9.52268 24.6532 6.26045 22.2012 3.80605C19.7491 1.35295 16.4904 0.0013 13.0165 0ZM13.014 2.6C15.791 2.6013 18.4008 3.68394 20.3627 5.64434C22.3246 7.60734 23.4023 10.2156 23.3997 12.9898C23.3971 18.715 18.7398 23.3721 13.0114 23.3721C11.2784 23.3708 9.56166 22.9357 8.04961 22.1102L7.17355 21.6328L6.20607 21.8613L3.64645 22.4656L4.27112 20.1449L4.55298 19.1039L4.01465 18.1695C3.10716 16.5991 2.62689 14.8036 2.62819 12.9797C2.63079 7.25709 7.28951 2.6 13.014 2.6ZM8.42035 6.9875C8.20323 6.9875 7.85218 7.06875 7.55445 7.39375C7.25672 7.71745 6.41684 8.50145 6.41684 10.0979C6.41684 11.6943 7.57984 13.2374 7.74236 13.4545C7.90357 13.6703 9.98725 17.0498 13.2857 18.3498C16.0263 19.4301 16.583 19.2169 17.1784 19.1623C17.7739 19.109 19.0994 18.379 19.3699 17.6211C19.6403 16.8632 19.6409 16.2112 19.5603 16.0773C19.4797 15.9421 19.2632 15.8615 18.9382 15.699C18.6144 15.5365 17.0191 14.7532 16.7214 14.6453C16.4236 14.5374 16.2059 14.4828 15.99 14.8078C15.7742 15.1328 15.154 15.8615 14.9642 16.0773C14.7743 16.2944 14.5858 16.3236 14.2608 16.1611C13.9357 15.9973 12.8907 15.6538 11.6504 14.5488C10.6857 13.6895 10.0347 12.6293 9.8449 12.3043C9.65639 11.9806 9.82713 11.8028 9.98965 11.6416C10.1353 11.496 10.3121 11.2627 10.4747 11.0729C10.6359 10.8831 10.6918 10.7478 10.7997 10.532C10.9076 10.3162 10.8524 10.1258 10.7718 9.96328C10.6911 9.80078 10.0599 8.19845 9.77126 7.55625C9.52814 7.01675 9.27137 7.00422 9.03994 6.99512C8.85142 6.98732 8.63617 6.9875 8.42035 6.9875Z" fill="white"/>
</svg>
